<?xml version="1.0" encoding="UTF-8"?>
<svg width="28px" height="22px" viewBox="0 0 28 22" version="1.1" xmlns="http://www.w3.org/2000/svg" xmlns:xlink="http://www.w3.org/1999/xlink">
    <!-- Generator: Sketch 61.2 (89653) - https://sketch.com -->
    <title>Take or Send Photo or Video Button</title>
    <desc>Created with Sketch.</desc>
    <defs>
        <polygon id="path-1" points="0 0 375 0 375 667 0 667"></polygon>
    </defs>
    <g id="Page-1" stroke="none" stroke-width="1" fill="none" fill-rule="evenodd">
        <g id="Write-it-yourself" transform="translate(-19.000000, -376.000000)">
            <mask id="mask-2" fill="white">
                <use xlink:href="#path-1"></use>
            </mask>
            <use id="Background" fill="#FFFFFF" xlink:href="#path-1"></use>
            <g id="Toolbar" mask="url(#mask-2)">
                <g transform="translate(0.000000, 365.000000)">
                    <rect id="Toolbar-Background" fill="#FFFFFF" x="0" y="0" width="375" height="44"></rect>
                    <path d="M33,18.1355369 C35.7835151,18.1355369 38.04,20.5313537 38.04,23.4867436 C38.04,26.4421335 35.7835151,28.8379503 33,28.8379503 C30.2164849,28.8379503 27.96,26.4421335 27.96,23.4867436 C27.96,20.5313537 30.2164849,18.1355369 33,18.1355369 Z M40.8456,16.9463798 C41.15192,16.9463798 41.4,17.2097781 41.4,17.5350126 L41.4,17.5474987 C41.4,17.8721386 41.15192,18.1355369 40.8456,18.1355369 L40.8344,18.1355369 C40.52808,18.1355369 40.28,17.8721386 40.28,17.5474987 L40.28,17.5350126 C40.28,17.2097781 40.52808,16.9463798 40.8344,16.9463798 L40.8456,16.9463798 Z M45.32,14.5680657 L40.3192,14.5680657 C39.94456,14.5680657 39.59512,14.3694765 39.38736,14.0382963 L37.81264,11.5297695 C37.60488,11.1991838 37.25544,11 36.8808,11 L29.11976,11 C28.74512,11 28.39568,11.1991838 28.18792,11.5297695 L26.6132,14.0382963 C26.40544,14.3694765 26.056,14.5680657 25.68136,14.5680657 L20.68,14.5680657 C19.75208,14.5680657 19,15.3671793 19,16.3518013 L19,31.2162644 C19,32.201481 19.75208,33 20.68,33 L45.32,33 C46.24792,33 47,32.201481 47,31.2162644 L47,16.3518013 C47,15.3671793 46.24792,14.5680657 45.32,14.5680657 L45.32,14.5680657 Z M33,16.3518013 C36.70552,16.3518013 39.72,19.5530121 39.72,23.4867436 C39.72,27.4210697 36.70496,30.6216859 33,30.6216859 C29.29448,30.6216859 26.28,27.4210697 26.28,23.4867436 C26.28,19.5530121 29.29448,16.3518013 33,16.3518013 Z M24.6,12.1897516 L24.6,13.3789087 L22.36,13.3789087 L22.36,12.1897516 L24.6,12.1897516 Z" id="Take-or-Send-Photo-or-Video-Button" fill="#858E98"></path>
                </g>
            </g>
        </g>
    </g>
</svg>