<?xml version="1.0" encoding="UTF-8"?>
<svg width="34px" height="25px" viewBox="0 0 34 25" version="1.1" xmlns="http://www.w3.org/2000/svg" xmlns:xlink="http://www.w3.org/1999/xlink">
    <!-- Generator: Sketch 61.2 (89653) - https://sketch.com -->
    <title>Image Edit</title>
    <desc>Created with Sketch.</desc>
    <defs>
        <polygon id="path-1" points="0 0 375 0 375 667 0 667"></polygon>
    </defs>
    <g id="Page-1" stroke="none" stroke-width="1" fill="none" fill-rule="evenodd">
        <g id="Write-it-yourself" transform="translate(-127.000000, -374.000000)">
            <mask id="mask-2" fill="white">
                <use xlink:href="#path-1"></use>
            </mask>
            <use id="Background" fill="#FFFFFF" xlink:href="#path-1"></use>
            <g id="Toolbar" mask="url(#mask-2)">
                <g transform="translate(0.000000, 365.000000)">
                    <rect id="Toolbar-Background" fill="#FFFFFF" x="0" y="0" width="375" height="44"></rect>
                    <path d="M148.508614,9 C155.304449,9 160.832766,14.4291565 160.996277,21.1917073 L161,21.5 C161,28.4035594 155.404639,34 148.508614,34 L139.491386,34 C132.592584,34 127,28.4050773 127,21.5 C127,14.5964406 132.595361,9 139.491386,9 L148.508614,9 Z M150.828,24.4882767 L149.4834,25.2827421 C149.4834,25.2827421 148.8918,26.402132 150.9636,27.8058311 C151.3278,28.0532169 151.4868,28.3036796 151.6218,28.7129123 C151.6734,28.8692207 151.791,29.0858372 151.9722,28.9646058 C152.2152,28.8033743 152.193,28.2999873 152.2248,28.0353706 C152.2662,27.6833689 152.2902,27.3282903 152.2866,26.9738271 C152.2824,26.602133 152.2506,26.2249004 152.151,25.8661295 C152.0538,25.5165893 151.8882,25.2882806 151.6662,25.0168947 C151.6662,25.0168947 151.3278,24.5639694 150.828,24.4882767 Z M136.2006,25.5368971 L135.3354,28.6919891 C135.2874,28.8642976 135.492,28.9916829 135.6186,28.86799 L138.0402,26.61321 L136.2006,25.5368971 Z M140.6286,17.6691672 L136.4388,25.107972 L138.2766,26.1799771 L142.4664,18.7411724 L140.6286,17.6691672 Z M150.096,22.5134981 L148.2654,23.5898109 L148.9854,24.8784325 L150.8136,23.7898119 L150.096,22.5134981 Z M144.0192,13.0912992 L143.3424,13.4931473 C143.0256,13.6814559 142.9158,14.1011502 143.0994,14.4266902 L147.9168,22.9756541 L149.7474,21.8901105 L144.93,13.3405312 C144.7464,13.0156066 144.3366,12.9029906 144.0192,13.0912992 Z M138,21.0002601 L135,21.0002601 L135,22.8464227 L136.95,22.8464227 L138,21.0002601 Z M153,21.0002601 L150.1446,21.0002601 L151.1904,22.8464227 L153,22.8464227 L153,21.0002601 Z M145.9596,21.0002601 L142.0092,21.0002601 L140.9628,22.8464227 L147,22.8464227 L145.9596,21.0002601 Z M141.5862,15.9362359 L140.94,17.1940881 L142.7772,18.2660932 L143.4246,17.008241 C143.6058,16.6820856 143.493,16.2630067 143.175,16.0771596 L142.4946,15.6802347 C142.1766,15.4943876 141.7674,15.6100805 141.5862,15.9362359 Z" id="Image-Edit" fill="#858E98"></path>
                </g>
            </g>
        </g>
    </g>
</svg>