<?xml version="1.0" encoding="UTF-8"?>
<svg width="28px" height="24px" viewBox="0 0 28 24" version="1.1" xmlns="http://www.w3.org/2000/svg" xmlns:xlink="http://www.w3.org/1999/xlink">
    <!-- Generator: Sketch 61.2 (89653) - https://sketch.com -->
    <title>Combined Shape</title>
    <desc>Created with Sketch.</desc>
    <defs>
        <polygon id="path-1" points="0 0 375 0 375 667 0 667"></polygon>
    </defs>
    <g id="Messages" stroke="none" stroke-width="1" fill="none" fill-rule="evenodd">
        <g id="Group-4" transform="translate(-219.000000, -1427.000000)" fill="#EFFAFE">
            <rect id="Background" x="0" y="0" width="2675" height="1919"></rect>
        </g>
        <g id="Invisible-ink." transform="translate(-19.000000, -375.000000)">
            <mask id="mask-2" fill="white">
                <use xlink:href="#path-1"></use>
            </mask>
            <use id="Background" fill="#FFFFFF" xlink:href="#path-1"></use>
            <g id="Toolbar" mask="url(#mask-2)">
                <g transform="translate(0.000000, 365.000000)">
                    <rect id="Toolbar-Background" fill="#FFFFFF" x="0" y="0" width="375" height="44"></rect>
                    <path d="M40.9932975,10 C44.3107077,10 47,12.6832456 47,15.9943041 L47,28.0056959 C47,31.3162587 44.3152423,34 40.9932975,34 L25.0067025,34 C21.6892923,34 19,31.3167544 19,28.0056959 L19,15.9943041 C19,12.6837413 21.6847577,10 25.0067025,10 L40.9932975,10 Z M32.4016423,16.4175023 C31.8446629,15.8605229 30.9587544,15.8632161 30.4106816,16.4112889 C29.8587877,16.9631828 29.8653906,17.8507452 30.416895,18.4022496 L30.416895,18.4022496 L34.213,22.198 L30.416895,25.9952363 C29.8653906,26.5467407 29.8587877,27.4343031 30.4106816,27.986197 C30.9587544,28.5342698 31.8446629,28.536963 32.4016423,27.9799836 L36.9793763,23.4022496 C37.3086326,23.0729932 37.4436715,22.6239568 37.3815998,22.1980784 C37.4434604,21.7728276 37.3083754,21.3242355 36.9793763,20.9952363 L36.9793763,20.9952363 Z" id="Combined-Shape" fill="#858E98"></path>
                </g>
            </g>
        </g>
    </g>
</svg>