<?xml version="1.0" encoding="UTF-8"?>
<svg width="26px" height="26px" viewBox="0 0 26 26" version="1.1" xmlns="http://www.w3.org/2000/svg" xmlns:xlink="http://www.w3.org/1999/xlink">
    <!-- Generator: Sketch 61.2 (89653) - https://sketch.com -->
    <title>Tap to Talk Button</title>
    <desc>Created with Sketch.</desc>
    <defs>
        <polygon id="path-1" points="0 0 375 0 375 667 0 667"></polygon>
    </defs>
    <g id="Messages" stroke="none" stroke-width="1" fill="none" fill-rule="evenodd">
        <g id="Group-4" transform="translate(-1003.000000, -1426.000000)" fill="#EFFAFE">
            <rect id="Background" x="0" y="0" width="2675" height="1919"></rect>
        </g>
        <g id="Write-it-yourself" transform="translate(-328.000000, -374.000000)">
            <mask id="mask-2" fill="white">
                <use xlink:href="#path-1"></use>
            </mask>
            <use id="Background" fill="#FFFFFF" xlink:href="#path-1"></use>
            <g id="Toolbar" mask="url(#mask-2)">
                <g transform="translate(0.000000, 365.000000)">
                    <rect id="Toolbar-Background" fill="#FFFFFF" x="0" y="0" width="375" height="44"></rect>
                    <g id="Message-Entry-Field" stroke-width="1" fill="none" transform="translate(178.000000, 5.000000)">
                        <rect id="input" stroke="#C8C8CD" fill="#FAFAFA" x="0.5" y="0.5" width="180" height="33" rx="16.5"></rect>
                        <g id="Tap-to-Talk-Button" transform="translate(150.000000, 4.000000)">
                            <circle id="Oval" fill="#858E98" cx="13" cy="13" r="13"></circle>
                            <path d="M9,10.5 L9,13.5 C8.9955,15.6775 10.743,17.4505 12.9085,17.5 L12.9085,17.5 L13.0915,17.5 C15.257,17.4505 17.0045,15.6775 17.0045,13.5 L17.0045,13.5 L17,13.5 L17,10.5 L18,10.5 L18,13.5 C17.9955,16.0855 16.0205,18.218 13.5,18.47 L13.5,18.47 L13.5,21 L16.5,21 L16.5,22 L9.5,22 L9.5,21 L12.5,21 L12.5,18.47 C9.9795,18.2185 8.0045,16.086 8.0045,13.5 L8.0045,13.5 L8,13.5 L8,10.5 L9,10.5 Z M13,4 C14.6565,4 16,5.3435 16,7 L16,7 L16,13.5 C16,15.157 14.6565,16.5 13,16.5 C11.343,16.5 10,15.157 10,13.5 L10,13.5 L10,7 C10,5.3435 11.343,4 13,4 Z" fill="#F7F7F7"></path>
                        </g>
                    </g>
                </g>
            </g>
        </g>
    </g>
</svg>